# xmcd
#
# Track frame offsets: 
#        150
#        15985
#        27252
#        52387
#        76845
#        93000
#        110825
#        128885
#        145752
#        163157
#        185592
#        203260
#        227135
#        243012
#        258687
#        279345
#        313047
#
# Disc length: 4605 seconds
#
# Revision: 4
# Processed by: cddbd v1.5.2PL0 Copyright (c) Steve Scherf et al.
# Submitted via: ExactAudioCopyFreeDBPlugin 1.0
#
DISCID=e111fb11
DTITLE=Various Artist - The Finest In Female Vocal Jazz
DYEAR=2003
DGENRE=Jazz
TTITLE0=Dusty Springfield - The Look Of Love
TTITLE1=Nana Mouskouri - No Moon At All
TTITLE2=Diana Krall - Body And Soul
TTITLE3=Lyambiko - Tenderly
TTITLE4=Joel Harrison with Jen Chapin  - Sing Me Back Home
TTITLE5=Zona Sul - Dans Mon Île
TTITLE6=Muriel Zoe - Round Midnight
TTITLE7=Caddish -  Dizzy
TTITLE8=Christof Lauer and Jens Thomas with Sidsel Endresen - - Shadows 
TTITLE8=In The Rain
TTITLE9=Cassandra Wilson - Autumn Nocturne
TTITLE10=Jocelyn B. Smith - The Yesterdays Of Tomorrow
TTITLE11=Jan Lundgren Trio presents Miriam Aïda and Fredrik Kronkvist  /
TTITLE11=The Good Life
TTITLE12=Carmen Cuesta Loeb feat. Michael Brecker - Dreams
TTITLE13=Masha Bijlsma - How Long Has This Been Going On
TTITLE14=Julia Hülsmann Trio with Rebekka Bakken - Love Is More Thicke
TTITLE14=r Than Forget
TTITLE15=Sade - Smooth Operator
TTITLE16=Diana Krall - A Case Of You (Video)
EXTD=YEAR: 2003
EXTT0=
EXTT1=
EXTT2=
EXTT3=
EXTT4=
EXTT5=
EXTT6=
EXTT7=
EXTT8=
EXTT9=
EXTT10=
EXTT11=
EXTT12=
EXTT13=
EXTT14=
EXTT15=
EXTT16=
PLAYORDER=
